<svg xmlns="http://www.w3.org/2000/svg" viewBox="0 0 32 32" fill="none">
  <defs>
    <linearGradient id="g" x1="4" y1="4" x2="28" y2="28" gradientUnits="userSpaceOnUse">
      <stop stop-color="#3b82f6"/>
      <stop offset="1" stop-color="#6366f1"/>
    </linearGradient>
  </defs>
  <path d="M16 4L6 8v7c0 6.1 4.2 11.8 10 13.8 5.8-2 10-7.7 10-13.8V8L16 4z" fill="url(#g)"/>
  <rect x="11" y="17" width="2.5" height="5" rx="0.8" fill="#fff" opacity="0.85"/>
  <rect x="14.8" y="14" width="2.5" height="8" rx="0.8" fill="#fff"/>
  <rect x="18.5" y="11" width="2.5" height="11" rx="0.8" fill="#fff"/>
  <circle cx="22" cy="10" r="1.5" fill="#c4b5fd"/>
  <circle cx="24.5" cy="13" r="1.1" fill="#67e8f9"/>
  <path d="M9 10l.6 2.4L12 13l-2.4.6L9 16l-.6-2.4L6 13l2.4-.6L9 10z" fill="#fff" opacity="0.9"/>
</svg>
